<svg width="48" height="48" viewBox="0 0 48 48" fill="none" xmlns="http://www.w3.org/2000/svg">
<path d="M20.58 5.71991L3.64004 34C3.29078 34.6048 3.10598 35.2906 3.10402 35.989C3.10206 36.6874 3.28302 37.3742 3.6289 37.981C3.97476 38.5878 4.4735 39.0934 5.07546 39.4476C5.67742 39.8018 6.36164 39.9922 7.06004 40H40.94C41.6384 39.9922 42.3226 39.8018 42.9246 39.4476C43.5266 39.0934 44.0252 38.5878 44.3712 37.981C44.717 37.3742 44.898 36.6874 44.896 35.989C44.894 35.2906 44.7092 34.6048 44.36 34L27.42 5.71991C27.0634 5.13213 26.5614 4.64615 25.9624 4.30887C25.3634 3.97161 24.6874 3.79443 24 3.79443C23.3126 3.79443 22.6366 3.97161 22.0376 4.30887C21.4386 4.64615 20.9366 5.13213 20.58 5.71991Z" stroke="#E65C6F" stroke-width="2" stroke-linecap="round" stroke-linejoin="round"/>
<path d="M24 16V24" stroke="#E65C6F" stroke-width="2" stroke-linecap="round" stroke-linejoin="round"/>
<path d="M24 32H24.02" stroke="#E65C6F" stroke-width="2" stroke-linecap="round" stroke-linejoin="round"/>
</svg>
