<svg width="19" height="21" viewBox="0 0 19 21" fill="none" xmlns="http://www.w3.org/2000/svg">
<path d="M16.1168 0.833313H2.71676C2.44687 0.833918 2.17976 0.887688 1.93066 0.99155C1.68156 1.09541 1.45537 1.24733 1.265 1.43863C1.07463 1.62993 0.923813 1.85686 0.821165 2.10646C0.718516 2.35606 0.666047 2.62343 0.666755 2.89331V16.4133C0.666047 16.6832 0.718516 16.9506 0.821165 17.2002C0.923813 17.4498 1.07463 17.6767 1.265 17.868C1.45537 18.0593 1.68156 18.2112 1.93066 18.3151C2.17976 18.4189 2.44687 18.4727 2.71676 18.4733H14.0568L13.5268 16.6233L14.8068 17.8133L16.0168 18.9333L18.1668 20.8333V2.89331C18.1675 2.62343 18.115 2.35606 18.0123 2.10646C17.9097 1.85686 17.7589 1.62993 17.5685 1.43863C17.3781 1.24733 17.1519 1.09541 16.9028 0.99155C16.6538 0.887688 16.3866 0.833918 16.1168 0.833313ZM12.2568 13.8933C12.2568 13.8933 11.8968 13.4633 11.5968 13.0833C12.3216 12.9127 12.9627 12.4911 13.4068 11.8933C13.0469 12.1328 12.6611 12.3307 12.2568 12.4833C11.7916 12.6819 11.305 12.8262 10.8068 12.9133C9.9503 13.071 9.07196 13.0676 8.21675 12.9033C7.71468 12.8051 7.22263 12.6611 6.74675 12.4733C6.49591 12.3769 6.252 12.2633 6.01675 12.1333C5.98675 12.1133 5.95676 12.1033 5.92675 12.0833C5.91171 12.0758 5.89816 12.0657 5.88675 12.0533C5.79083 12.001 5.69739 11.9443 5.60675 11.8833C6.0347 12.4686 6.6537 12.886 7.35675 13.0633C7.05675 13.4433 6.68675 13.8933 6.68675 13.8933C6.09273 13.9093 5.50388 13.7791 4.97203 13.514C4.44018 13.249 3.98163 12.8572 3.63675 12.3733C3.66922 10.346 4.1616 8.35258 5.07675 6.54331C5.88209 5.91078 6.86396 5.54389 7.88675 5.49331L7.98675 5.61331C7.02449 5.85145 6.12653 6.29872 5.35675 6.92331C5.35675 6.92331 5.57676 6.80331 5.94675 6.63331C6.66556 6.30519 7.43165 6.09257 8.21675 6.00331C8.27273 5.99172 8.32962 5.98503 8.38675 5.98331C9.05687 5.89601 9.73504 5.88929 10.4068 5.96331C11.4631 6.08395 12.4856 6.41008 13.4168 6.92331C12.686 6.32849 11.8373 5.89561 10.9268 5.65331L11.0668 5.49331C12.0896 5.54389 13.0714 5.91078 13.8768 6.54331C14.7919 8.35258 15.2843 10.346 15.3168 12.3733C14.9691 12.8567 14.5086 13.2479 13.9753 13.5128C13.442 13.7777 12.852 13.9084 12.2568 13.8933Z" fill="white"/>
</svg>
