<svg width="38" height="42" viewBox="0 0 38 42" fill="none" xmlns="http://www.w3.org/2000/svg">
<path d="M32.2336 1.6665H5.43352C4.89374 1.66771 4.35952 1.77525 3.86132 1.98298C3.36312 2.1907 2.91074 2.49454 2.53 2.87714C2.14926 3.25974 1.84763 3.7136 1.64233 4.2128C1.43703 4.712 1.33209 5.24674 1.33351 5.7865V32.8265C1.33209 33.3663 1.43703 33.9011 1.64233 34.4003C1.84763 34.8995 2.14926 35.3533 2.53 35.7359C2.91074 36.1185 3.36312 36.4223 3.86132 36.6301C4.35952 36.8377 4.89374 36.9453 5.43352 36.9465H28.1136L27.0536 33.2465L29.6136 35.6265L32.0336 37.8665L36.3336 41.6665V5.7865C36.335 5.24674 36.23 4.712 36.0246 4.2128C35.8194 3.7136 35.5178 3.25974 35.137 2.87714C34.7562 2.49454 34.3038 2.1907 33.8056 1.98298C33.3076 1.77525 32.7732 1.66771 32.2336 1.6665ZM24.5136 27.7865C24.5136 27.7865 23.7936 26.9265 23.1936 26.1665C24.6432 25.8253 25.9254 24.9821 26.8136 23.7865C26.0938 24.2655 25.3222 24.6613 24.5136 24.9665C23.5832 25.3637 22.61 25.6523 21.6136 25.8265C19.9006 26.1419 18.1439 26.1351 16.4335 25.8065C15.4294 25.6101 14.4453 25.3221 13.4935 24.9465C12.9918 24.7537 12.504 24.5265 12.0335 24.2665C11.9735 24.2265 11.9135 24.2065 11.8535 24.1665C11.8234 24.1515 11.7963 24.1313 11.7735 24.1065C11.5817 24.0019 11.3948 23.8885 11.2135 23.7665C12.0694 24.9371 13.3074 25.7719 14.7135 26.1265C14.1135 26.8865 13.3735 27.7865 13.3735 27.7865C12.1855 27.8185 11.0078 27.5581 9.94406 27.0279C8.88036 26.4979 7.96326 25.7143 7.2735 24.7465C7.33844 20.6919 8.3232 16.705 10.1535 13.0865C11.7642 11.8214 13.7279 11.0877 15.7735 10.9865L15.9735 11.2265C14.049 11.7028 12.2531 12.5973 10.7135 13.8465C10.7135 13.8465 11.1535 13.6065 11.8935 13.2665C13.3311 12.6103 14.8633 12.185 16.4335 12.0065C16.5455 11.9833 16.6592 11.9699 16.7735 11.9665C18.1137 11.7919 19.4701 11.7785 20.8136 11.9265C22.9262 12.1678 24.9712 12.82 26.8336 13.8465C25.372 12.6569 23.6746 11.7911 21.8536 11.3065L22.1336 10.9865C24.1792 11.0877 26.1428 11.8214 27.7536 13.0865C29.5838 16.705 30.5686 20.6919 30.6336 24.7465C29.9382 25.7133 29.0172 26.4957 27.9506 27.0255C26.884 27.5553 25.704 27.8167 24.5136 27.7865Z" fill="white"/>
</svg>
