<svg width="48" height="48" viewBox="0 0 48 48" fill="none" xmlns="http://www.w3.org/2000/svg">
<path d="M23.9998 0.666504C11.1159 0.666504 0.666504 11.116 0.666504 23.9999C0.666504 36.8837 11.1159 47.3331 23.9998 47.3331C36.8838 47.3331 47.3332 36.8837 47.3332 23.9999C47.3332 11.116 36.8896 0.666504 23.9998 0.666504ZM12.1776 24.7835L12.2768 24.6259L18.3493 15.1293C18.3696 15.0981 18.398 15.0729 18.4314 15.0564C18.4648 15.0398 18.502 15.0326 18.5391 15.0354C18.5763 15.0382 18.612 15.0509 18.6426 15.0722C18.6731 15.0935 18.6974 15.1226 18.7129 15.1565C19.724 17.4296 20.6028 20.2569 20.1906 22.0165C20.0196 22.7399 19.5393 23.7199 18.9968 24.6259C18.9272 24.7585 18.8513 24.8877 18.7693 25.0129C18.7496 25.0409 18.7234 25.0635 18.6928 25.0787C18.6623 25.0941 18.6284 25.1015 18.5943 25.1005H12.3584C12.3212 25.1009 12.2845 25.0915 12.2523 25.0729C12.2201 25.0543 12.1934 25.0273 12.1753 24.9949C12.1572 24.9623 12.1481 24.9255 12.1492 24.8883C12.1503 24.8511 12.1615 24.8149 12.1815 24.7835H12.1776ZM39.2326 28.0501C39.2332 28.0917 39.2214 28.1325 39.199 28.1673C39.1764 28.2023 39.1442 28.2297 39.1062 28.2465C38.6338 28.4469 37.0256 29.1895 36.3568 30.1171C34.6496 32.4931 33.3468 35.8921 30.4302 35.8921H18.2696C17.2428 35.8905 16.2265 35.6867 15.2785 35.2923C14.3306 34.8977 13.4697 34.3203 12.7451 33.5929C12.0204 32.8655 11.4462 32.0025 11.0552 31.0531C10.6643 30.1037 10.4642 29.0865 10.4665 28.0599V27.9199C10.4665 27.8071 10.5598 27.7137 10.6765 27.7137H17.4529C17.589 27.7137 17.6862 27.8363 17.6765 27.9705C17.626 28.4099 17.7096 28.8629 17.9196 29.2731C18.3201 30.0899 19.1562 30.5993 20.0566 30.5993H23.4126V27.9801H20.0916C20.0526 27.9797 20.0146 27.9687 19.9814 27.9483C19.9483 27.9279 19.9214 27.8987 19.9036 27.8641C19.8858 27.8295 19.8778 27.7907 19.8804 27.7519C19.883 27.7131 19.8962 27.6757 19.9185 27.6437L20.041 27.4687C20.352 27.0195 20.8012 26.3293 21.2484 25.5399C21.5518 25.0071 21.8474 24.4393 22.0846 23.8677C22.1312 23.7665 22.1682 23.6595 22.211 23.5565C22.2752 23.3737 22.3412 23.2027 22.3878 23.0335C22.4336 22.8901 22.4758 22.7455 22.5142 22.5999C22.6252 22.1137 22.6718 21.6005 22.6718 21.0695C22.6718 20.8595 22.664 20.6399 22.6446 20.4337C22.6348 20.2063 22.6056 19.9768 22.5784 19.7493C22.5568 19.5457 22.5256 19.3433 22.4852 19.1426C22.4328 18.837 22.3692 18.5335 22.2946 18.2326L22.2674 18.116C22.209 17.906 22.1584 17.7076 22.0924 17.4996C21.9072 16.8606 21.6944 16.23 21.4546 15.6096C21.371 15.3762 21.2788 15.1459 21.1784 14.9193C21.0384 14.5732 20.8946 14.2601 20.7642 13.9665C20.6994 13.8407 20.6386 13.713 20.5816 13.5835C20.5182 13.4437 20.4514 13.3056 20.3812 13.1693C20.3346 13.0662 20.2782 12.9671 20.2412 12.8737L19.831 12.1193C19.7746 12.0162 19.8679 11.8898 19.9807 11.9229L22.5474 12.6171H22.5668L22.9032 12.7143L23.2766 12.8193L23.4126 12.8562V11.3337C23.4126 10.5968 23.9998 9.99984 24.7328 9.99984C24.906 9.99938 25.0774 10.0339 25.2368 10.1014C25.3962 10.1689 25.5402 10.268 25.6604 10.3926C25.9086 10.643 26.0484 10.9811 26.0492 11.3337V13.5971L26.3234 13.6729C26.3428 13.6826 26.3662 13.6923 26.3838 13.706C26.4498 13.7526 26.547 13.8265 26.6696 13.9198C26.7668 13.9937 26.8698 14.0871 26.9904 14.1862C27.3744 14.4991 27.7466 14.8259 28.1066 15.1662C28.5226 15.5532 28.9892 16.0062 29.4366 16.5098C29.5628 16.6537 29.6834 16.7937 29.8098 16.9493C29.9304 17.1029 30.0666 17.2526 30.1792 17.4004C30.3328 17.6026 30.4904 17.8126 30.6362 18.0304C30.7004 18.1335 30.7802 18.2404 30.8404 18.3435C31.027 18.6196 31.1866 18.9035 31.3402 19.1893C31.4062 19.3196 31.4704 19.4635 31.5268 19.6035C31.6998 19.9865 31.836 20.3735 31.9196 20.7663C31.9472 20.8497 31.9662 20.9357 31.976 21.0229V21.0423C32.0032 21.1531 32.0128 21.2757 32.0226 21.4001C32.0774 21.9749 32.007 22.5547 31.8166 23.0995C31.7562 23.2629 31.6998 23.4301 31.626 23.5935C31.4802 23.9241 31.3128 24.2605 31.1126 24.5695C31.0466 24.6863 30.9668 24.8069 30.8928 24.9235C30.8092 25.0459 30.7198 25.1627 30.646 25.2735C30.539 25.4207 30.4268 25.5641 30.3096 25.7031C30.2066 25.8431 30.1034 25.9831 29.9868 26.1095C29.8292 26.3001 29.6756 26.4791 29.5104 26.6501C29.417 26.7629 29.316 26.8795 29.207 26.9807C29.106 27.0973 28.997 27.2005 28.9038 27.2937C28.7404 27.4571 28.612 27.5795 28.4992 27.6865L28.2328 27.9237C28.1958 27.9609 28.1454 27.9819 28.0928 27.9821H26.0492V30.5993H28.6198C29.1934 30.5993 29.7398 30.3971 30.1832 30.0199C30.3328 29.8895 30.9902 29.3199 31.7698 28.4605C31.7952 28.4311 31.8292 28.4107 31.867 28.4021L38.9642 26.3469C38.9954 26.3377 39.0282 26.3361 39.0602 26.3419C39.0922 26.3477 39.1222 26.3609 39.1482 26.3803C39.1742 26.3997 39.1954 26.4249 39.21 26.4537C39.2246 26.4827 39.2324 26.5147 39.2326 26.5471V28.0501Z" fill="white"/>
</svg>
