<svg width="24" height="24" viewBox="0 0 24 24" fill="none" xmlns="http://www.w3.org/2000/svg">
<path d="M11.9999 0.333313C5.55797 0.333313 0.333252 5.55804 0.333252 12C0.333252 18.4419 5.55797 23.6666 11.9999 23.6666C18.4419 23.6666 23.6666 18.4419 23.6666 12C23.6666 5.55804 18.4448 0.333313 11.9999 0.333313ZM6.08881 12.3918L6.13839 12.313L9.17464 7.5647C9.18481 7.54909 9.19899 7.5365 9.21568 7.52824C9.23238 7.51998 9.25099 7.51636 9.26957 7.51775C9.28815 7.51914 9.30601 7.5255 9.32129 7.53615C9.33657 7.5468 9.34872 7.56137 9.35645 7.57831C9.862 8.71484 10.3014 10.1285 10.0953 11.0083C10.0098 11.37 9.76964 11.86 9.49839 12.313C9.46359 12.3793 9.42563 12.4439 9.38464 12.5065C9.37482 12.5205 9.36169 12.5318 9.34641 12.5394C9.33114 12.5471 9.31421 12.5508 9.29714 12.5503H6.17922C6.16061 12.5505 6.14227 12.5458 6.12615 12.5365C6.11003 12.5272 6.09672 12.5137 6.08765 12.4975C6.07858 12.4812 6.07407 12.4628 6.07462 12.4442C6.07517 12.4256 6.08074 12.4075 6.09075 12.3918H6.08881ZM19.6163 14.0251C19.6166 14.0459 19.6107 14.0663 19.5995 14.0837C19.5882 14.1012 19.5721 14.1149 19.5531 14.1233C19.3169 14.2235 18.5128 14.5948 18.1784 15.0586C17.3248 16.2466 16.6734 17.9461 15.2151 17.9461H9.13478C8.62141 17.9453 8.11323 17.8434 7.63927 17.6462C7.16531 17.4489 6.73486 17.1602 6.37253 16.7965C6.0102 16.4328 5.72309 16.0013 5.52761 15.5266C5.33213 15.0519 5.2321 14.5433 5.23325 14.03V13.96C5.23325 13.9036 5.27992 13.8569 5.33825 13.8569H8.72645C8.7945 13.8569 8.84311 13.9182 8.83825 13.9853C8.81298 14.205 8.85478 14.4315 8.95978 14.6366C9.16006 15.045 9.57811 15.2997 10.0283 15.2997H11.7063V13.9901H10.0458C10.0263 13.9899 10.0073 13.9844 9.9907 13.9742C9.97415 13.964 9.96069 13.9494 9.95179 13.9321C9.94289 13.9148 9.93888 13.8954 9.94019 13.876C9.9415 13.8566 9.94808 13.8379 9.95923 13.8219L10.0205 13.7344C10.176 13.5098 10.4006 13.1647 10.6242 12.77C10.7759 12.5036 10.9237 12.2197 11.0423 11.9339C11.0656 11.8833 11.0841 11.8298 11.1055 11.7783C11.1376 11.6869 11.1706 11.6014 11.1939 11.5168C11.2168 11.4451 11.2379 11.3728 11.2571 11.3C11.3126 11.0569 11.3359 10.8003 11.3359 10.5348C11.3359 10.4298 11.332 10.32 11.3223 10.2169C11.3174 10.1032 11.3028 9.98845 11.2892 9.8747C11.2784 9.77293 11.2628 9.67171 11.2426 9.57137C11.2164 9.41858 11.1846 9.26682 11.1473 9.11637L11.1337 9.05804C11.1045 8.95304 11.0792 8.85387 11.0462 8.74984C10.9536 8.43038 10.8472 8.11508 10.7273 7.80484C10.6855 7.68815 10.6394 7.57302 10.5892 7.4597C10.5192 7.28665 10.4473 7.13012 10.3821 6.98331C10.3497 6.92042 10.3193 6.85655 10.2908 6.79179C10.2591 6.72192 10.2257 6.65287 10.1906 6.5847C10.1673 6.53317 10.1391 6.48359 10.1206 6.43692L9.91548 6.0597C9.88728 6.00817 9.93395 5.94498 9.99034 5.96151L11.2737 6.30859H11.2834L11.4516 6.3572L11.6383 6.4097L11.7063 6.42817V5.66692C11.7063 5.29845 11.9999 4.99998 12.3664 4.99998C12.453 4.99975 12.5387 5.01703 12.6184 5.05078C12.6981 5.08453 12.7701 5.13405 12.8302 5.19637C12.9543 5.32157 13.0242 5.49062 13.0246 5.66692V6.79859L13.1617 6.83651C13.1714 6.84137 13.1831 6.84623 13.1919 6.85304C13.2249 6.87637 13.2735 6.91331 13.3348 6.95998C13.3834 6.99692 13.4349 7.04359 13.4952 7.09317C13.6872 7.24959 13.8733 7.41303 14.0533 7.58317C14.2613 7.77665 14.4946 8.00317 14.7183 8.25498C14.7814 8.32692 14.8417 8.39692 14.9049 8.4747C14.9652 8.55151 15.0333 8.62637 15.0896 8.70026C15.1664 8.80137 15.2452 8.90637 15.3181 9.01526C15.3502 9.06679 15.3901 9.12026 15.4202 9.17179C15.5135 9.30984 15.5933 9.45179 15.6701 9.5947C15.7031 9.65984 15.7352 9.73179 15.7634 9.80179C15.8499 9.99331 15.918 10.1868 15.9598 10.3832C15.9736 10.4249 15.9831 10.4679 15.988 10.5115V10.5212C16.0016 10.5766 16.0064 10.6379 16.0113 10.7001C16.0387 10.9875 16.0035 11.2774 15.9083 11.5498C15.8781 11.6315 15.8499 11.7151 15.813 11.7968C15.7401 11.9621 15.6564 12.1303 15.5563 12.2848C15.5233 12.3432 15.4834 12.4035 15.4464 12.4618C15.4046 12.523 15.3599 12.5814 15.323 12.6368C15.2695 12.7104 15.2134 12.7821 15.1548 12.8516C15.1033 12.9216 15.0517 12.9916 14.9934 13.0548C14.9146 13.1501 14.8378 13.2396 14.7552 13.3251C14.7085 13.3815 14.658 13.4398 14.6035 13.4904C14.553 13.5487 14.4985 13.6003 14.4519 13.6469C14.3702 13.7286 14.306 13.7898 14.2496 13.8433L14.1164 13.9619C14.0979 13.9805 14.0727 13.991 14.0464 13.9911H13.0246V15.2997H14.3099C14.5967 15.2997 14.8699 15.1986 15.0916 15.01C15.1664 14.9448 15.4951 14.66 15.8849 14.2303C15.8976 14.2156 15.9146 14.2054 15.9335 14.2011L19.4821 13.1735C19.4977 13.1689 19.5141 13.1681 19.5301 13.171C19.5461 13.1739 19.5611 13.1805 19.5741 13.1902C19.5871 13.1999 19.5977 13.2125 19.605 13.2269C19.6123 13.2414 19.6162 13.2574 19.6163 13.2736V14.0251Z" fill="white"/>
</svg>
