<svg width="48" height="48" viewBox="0 0 48 48" fill="none" xmlns="http://www.w3.org/2000/svg">
<g clip-path="url(#clip0_1_19)">
<path d="M29.3332 5.33432C29.3332 2.38879 26.9453 0.000976562 23.9998 0.000976562C21.0543 0.000976562 18.6665 2.38879 18.6665 5.33432V42.6676C18.6665 45.6132 21.0543 48.001 23.9998 48.001C26.9453 48.001 29.3332 45.6132 29.3332 42.6676V5.33432Z" fill="#BDE29F"/>
<path d="M42.6667 29.3346C45.6122 29.3346 48 26.9468 48 24.0013C48 21.0558 45.6122 18.668 42.6667 18.668L5.33334 18.668C2.38781 18.668 0 21.0558 0 24.0013C0 26.9468 2.38781 29.3346 5.33334 29.3346H42.6667Z" fill="#BDE29F"/>
</g>
<defs>
<clipPath id="clip0_1_19">
<rect width="48" height="48" fill="white"/>
</clipPath>
</defs>
</svg>
