<svg width="40" height="40" viewBox="0 0 40 40" fill="none" xmlns="http://www.w3.org/2000/svg">
<path d="M33.3334 12.5521C32.3612 12.9861 31.3108 13.2812 30.1822 13.4375C31.3628 12.7431 32.1702 11.7274 32.6042 10.3906C31.4756 11.0503 30.3124 11.4931 29.1146 11.7188C28.0556 10.5729 26.7274 10 25.1302 10C23.6198 10 22.3308 10.5339 21.263 11.6016C20.1954 12.6693 19.6615 13.9583 19.6615 15.4688C19.6615 15.9722 19.7049 16.3889 19.7917 16.7188C17.5521 16.5972 15.4514 16.033 13.4896 15.026C11.5278 14.0191 9.86112 12.6736 8.48958 10.9896C7.98612 11.8576 7.73438 12.7778 7.73438 13.75C7.73438 15.7292 8.5243 17.2483 10.1042 18.3073C9.2882 18.2899 8.42014 18.0642 7.5 17.6302V17.6823C7.5 18.9844 7.93402 20.1432 8.80208 21.1588C9.67014 22.1744 10.7378 22.8038 12.0052 23.0468C11.5017 23.1858 11.059 23.2552 10.6771 23.2552C10.4514 23.2552 10.1128 23.2204 9.66146 23.151C10.026 24.2448 10.6727 25.1476 11.6016 25.8594C12.5304 26.5712 13.5851 26.9358 14.7656 26.9532C12.7517 28.5156 10.4861 29.2968 7.96876 29.2968C7.51736 29.2968 7.08334 29.2708 6.66666 29.2188C9.23612 30.8506 12.0312 31.6666 15.0521 31.6666C16.9965 31.6666 18.8194 31.3586 20.5208 30.7422C22.2222 30.1258 23.6806 29.3012 24.8958 28.2682C26.1112 27.2352 27.1572 26.046 28.0338 24.7006C28.9106 23.355 29.5616 21.9488 29.987 20.4818C30.4124 19.0148 30.625 17.5521 30.625 16.0938C30.625 15.7812 30.6164 15.5469 30.599 15.3906C31.6928 14.6094 32.6042 13.6632 33.3334 12.5521ZM40 7.5V32.5C40 34.566 39.2664 36.3324 37.7994 37.7994C36.3324 39.2664 34.566 40 32.5 40H7.5C5.43402 40 3.66754 39.2664 2.20052 37.7994C0.733506 36.3324 0 34.566 0 32.5V7.5C0 5.43402 0.733506 3.66754 2.20052 2.20052C3.66754 0.733506 5.43402 0 7.5 0H32.5C34.566 0 36.3324 0.733506 37.7994 2.20052C39.2664 3.66754 40 5.43402 40 7.5Z" fill="white"/>
</svg>
